# xmcd
#
# Track frame offsets:
#	150
#	56333
#	124481
#	153455
#	188579
#	262203
#
# Disc length: 4006 seconds
#
# Revision: 0
# Processed by: cddbd v1.5.2PL0 Copyright (c) Steve Scherf et al.
# Submitted via: audiograbber 1.83.01
#
DISCID=520fa406
DTITLE=Grateful Dead - 94-10-01 Boston Garden, Boston MA
DYEAR=1900
DGENRE=
TTITLE0=Scarlet Begonias
TTITLE1=Fire On The Mountain
TTITLE2=Way To Go Home
TTITLE3=Saint Of Circumstance
TTITLE4=Terrapin Station
TTITLE5=Drums
EXTD=
EXTT0=
EXTT1=
EXTT2=
EXTT3=
EXTT4=
EXTT5=
PLAYORDER=
